<svg width="30" height="30" viewBox="0 0 30 30" fill="none" xmlns="http://www.w3.org/2000/svg">
    <g clip-path="url(#clip0_0_2934)">
        <path d="M21.174 7.12319C20.3458 6.53271 19.1222 6.74556 18.485 7.72684L12.246 17.3339C12.0847 17.5824 12.1402 17.8434 12.3886 18.0047C12.6371 18.1661 12.8981 18.1106 13.0594 17.8621L18.22 9.91554C18.5208 9.45236 19.1401 9.32071 19.6033 9.62151C20.0665 9.9223 20.1981 10.5416 19.8974 11.0048L14.7368 18.9514C13.9738 20.1262 12.4742 20.445 11.2994 19.6821C10.1245 18.9191 9.80577 17.4195 10.5687 16.2446L16.8076 6.63756C18.015 4.77838 20.4961 4.19886 22.3172 5.48211C24.1617 6.69351 24.7334 9.16356 23.4555 10.9787L16.1492 22.2294C14.4619 24.8275 11.1038 25.5413 8.50571 23.8541C5.90762 22.1668 5.19382 18.8087 6.88104 16.2106L13.12 6.60353C13.4207 6.14034 14.0401 6.0087 14.5033 6.30949C14.9664 6.61029 15.0981 7.22962 14.7973 7.6928L8.55838 17.2999C7.47276 18.9716 7.92327 21.0911 9.59499 22.1767C11.2667 23.2623 13.3862 22.8118 14.4718 21.1401L21.7891 9.87255C21.797 9.8604 21.8051 9.84843 21.8135 9.83664C22.404 9.00849 22.1911 7.78489 21.2099 7.14764C21.1977 7.13975 21.1857 7.1316 21.174 7.12319Z" fill="#142251"/>
    </g>
    <defs>
        <clipPath id="clip0_0_2934">
            <rect width="24" height="24" fill="white" transform="translate(0.976967 5.71582) rotate(-12)"/>
        </clipPath>
    </defs>
</svg>
