<svg width="30" height="29" viewBox="0 0 30 29" fill="none" xmlns="http://www.w3.org/2000/svg">
    <path d="M7.11781 9.13673C7.4186 8.67354 8.03793 8.5419 8.50111 8.8427L14.7788 12.9195L18.8556 6.64179C19.1564 6.1786 19.7757 6.04696 20.2389 6.34776C20.7021 6.64855 20.8337 7.26788 20.5329 7.73107L16.4561 14.0088L22.7338 18.0855C23.197 18.3863 23.3287 19.0057 23.0279 19.4688C22.7271 19.932 22.1077 20.0637 21.6445 19.7629L15.3669 15.6861L11.2901 21.9638C10.9893 22.427 10.37 22.5586 9.90678 22.2578C9.44359 21.957 9.31195 21.3377 9.61275 20.8745L13.6895 14.5968L7.41184 10.52C6.94865 10.2192 6.81701 9.59991 7.11781 9.13673Z" fill="#142251"/>
</svg>
