<svg width="29" height="30" viewBox="0 0 29 30" fill="none" xmlns="http://www.w3.org/2000/svg">
    <g clip-path="url(#clip0_0_2938)">
        <path d="M16.6844 5.53666C16.9852 5.07348 17.6045 4.94183 18.0677 5.24263L21.6259 7.55334C22.089 7.85413 22.2207 8.47346 21.9199 8.93665L14.9878 19.6112C14.8433 19.8336 14.6164 19.9895 14.357 20.0447L11.4226 20.6684C10.8823 20.7833 10.3513 20.4384 10.2365 19.8982L9.61277 16.9637C9.55763 16.7043 9.6078 16.4336 9.75225 16.2112L16.6844 5.53666ZM11.6552 16.9531L11.9849 18.5042L13.536 18.1745L19.6979 8.68604L17.8171 7.46461L11.6552 16.9531ZM4.45271 11.9265C4.22306 10.8461 4.91275 9.78404 5.99318 9.55439L10.8839 8.51483C11.4241 8.4 11.9552 8.74485 12.07 9.28507C12.1848 9.82528 11.84 10.3563 11.2997 10.4711L6.40901 11.5107L8.90395 23.2485L20.6417 20.7535L19.6022 15.8628C19.4873 15.3226 19.8322 14.7915 20.3724 14.6767C20.9126 14.5619 21.4436 14.9067 21.5585 15.447L22.598 20.3377C22.8277 21.4181 22.138 22.4802 21.0575 22.7098L9.31977 25.2047C8.23934 25.4344 7.1773 24.7447 6.94765 23.6643L4.45271 11.9265Z" fill="#142251"/>
    </g>
    <defs>
        <clipPath id="clip0_0_2938">
            <rect width="24" height="24" fill="white" transform="translate(0.0628967 5.70312) rotate(-12)"/>
        </clipPath>
    </defs>
</svg>
