<svg width="405" height="224" viewBox="0 0 405 224" fill="none" xmlns="http://www.w3.org/2000/svg">
    <rect width="405" height="224" rx="30" fill="#F3F6F9"/>
    <path d="M98 108H90.0608L90 107.957V106.042L90.0608 106H98V108Z" fill="#142251"/>
    <path d="M100 113H94.0456L94 112.957V111.042L94.0456 111H100V113Z" fill="#989EB1"/>
    <path d="M271.381 41L324.614 71.9975C327.388 73.7671 325.62 77 322.632 77L121.127 72.7176L104 50.2831L271.381 41Z" fill="#989EB1"/>
    <path d="M268.766 85.5183L267 42L312 68.304L310.39 100L268.766 85.5183Z" fill="#F3F6F9"/>
    <path d="M270.543 83L316.51 101.073C318.909 102.019 318.251 105.118 315.68 104.997L126.348 96.0227L103 83H270.543Z" fill="#989EB1"/>
    <path d="M271 41L103 50.383L103.109 83H270.726L271 41Z" fill="#989EB1"/>
    <path d="M110.079 79L110 54.8995L216.899 48L217 78.4478L110.079 79Z" fill="white"/>
    <path d="M98 224H294V177H98V224Z" fill="#142251"/>
    <path d="M102.5 177.5H297.5V132.5H102.5V177.5Z" fill="#F3F6F9" stroke="#989EB1"/>
    <path d="M107 132H302V116H107V132Z" fill="#989EB1"/>
    <path d="M98 120H294V104H98V120Z" fill="#142251"/>
    <mask id="path-13-inside-1_0_1" fill="white">
        <path d="M299 97H103C103.636 94.0463 103.636 90.9532 103 88L299 92.4997V97Z"/>
    </mask>
    <path d="M299 97H103C103.636 94.0463 103.636 90.9532 103 88L299 92.4997V97Z" fill="#F3F6F9"/>
    <path d="M103 97V98H101.762L102.022 96.7896L103 97ZM103 88L102.022 88.2105L101.756 86.9712L103.023 87.0003L103 88ZM299 92.4997L299.023 91.5L300 91.5224V92.4997H299ZM299 98H103V96H299V98ZM102.022 96.7896C102.628 93.9745 102.628 91.0249 102.022 88.2105L103.978 87.7895C104.643 90.8814 104.643 94.118 103.978 97.2104L102.022 96.7896ZM103.023 87.0003L299.023 91.5L298.977 93.4994L102.977 88.9997L103.023 87.0003ZM300 92.4997V97H298V92.4997H300Z" fill="#989EB1" mask="url(#path-13-inside-1_0_1)"/>
    <path d="M107.697 97.5C108.288 99.463 108.288 101.537 107.697 103.5H302.5V97.5H107.697Z" fill="#F3F6F9" stroke="#142251"/>
    <path d="M233 217H111V185H233V217Z" fill="#F3F6F9"/>
    <path d="M270.5 192.017C265.246 192.017 260.971 196.496 260.971 202C260.971 207.504 265.246 211.983 270.5 211.983C275.755 211.983 280.029 207.504 280.029 202C280.029 196.496 275.755 192.017 270.5 192.017ZM270.5 213C264.71 213 260 208.066 260 202C260 195.934 264.71 191 270.5 191C276.29 191 281 195.934 281 202C281 208.066 276.29 213 270.5 213Z" fill="#989EB1"/>
    <path d="M269.5 144.971C264.245 144.971 259.971 149.246 259.971 154.5C259.971 159.754 264.245 164.029 269.5 164.029C274.755 164.029 279.029 159.754 279.029 154.5C279.029 149.246 274.755 144.971 269.5 144.971ZM269.5 165C263.71 165 259 160.29 259 154.5C259 148.71 263.71 144 269.5 144C275.29 144 280 148.71 280 154.5C280 160.29 275.29 165 269.5 165Z" fill="#142251"/>
    <path d="M243 51.9709C237.996 51.9709 233.925 56.2458 233.925 61.5C233.925 66.7548 237.996 71.0291 243 71.0291C248.004 71.0291 252.075 66.7548 252.075 61.5C252.075 56.2458 248.004 51.9709 243 51.9709ZM243 72C237.486 72 233 67.29 233 61.5C233 55.7106 237.486 51 243 51C248.514 51 253 55.7106 253 61.5C253 67.29 248.514 72 243 72Z" fill="white"/>
    <path d="M271 67.9665C271 67.9665 282.604 73.3568 314.181 57L348 70.4167C348 70.4167 313.268 90.0965 309.997 88.9519C285.814 80.4912 271 67.9665 271 67.9665Z" fill="white"/>
    <path d="M292.43 83.9832L318 93.0953V94L270 79L292.43 83.9832Z" fill="#F0F0F0"/>
    <path d="M261 132H219.279C219.18 131.943 219.081 131.886 218.981 131.828H260.592C260.728 131.885 260.865 131.943 261 132ZM167.603 104.035H166.073C166.024 104.012 166 104 166 104C166.527 104.004 167.06 104.016 167.603 104.035Z" fill="#CCCCCC"/>
    <path d="M286.313 156C264.599 138.891 240.074 125.919 213.903 117.698L166 104H344L286.313 156Z" fill="white"/>
    <path d="M115.5 144.5V150.851C118.23 151.846 120.176 154.52 120.176 157.655C120.176 160.79 118.23 163.464 115.5 164.458V171.5H152.5V144.5H115.5Z" fill="white" stroke="#989EB1"/>
    <path d="M143 168H142V147H143V168Z" fill="#142251"/>
    <path d="M150 168H145V147H150V168Z" fill="#989EB1"/>
</svg>
