<svg width="405" height="224" viewBox="0 0 405 224" fill="none" xmlns="http://www.w3.org/2000/svg">
    <rect width="405" height="224" rx="30" fill="#F3F6F9"/>
    <path d="M158.42 135.332L143.316 126.612L141.302 125.449L126.197 116.729L135.495 111.361L150.599 120.082L152.613 121.245L167.717 129.965L158.42 135.332Z" fill="#CAE9F8"/>
    <path d="M282.445 116.182C280.651 117.538 279.684 120.214 278.999 123.342C279.987 126.038 281.719 128.065 284.127 129.482L289.849 137.323C291.38 139.346 293.7 140.698 296.363 141.757C298.908 142.373 301.603 142.398 304.43 141.908C308.102 140.718 309.249 139.453 310.408 137.237C309.761 135.023 306.681 132.483 302.707 130.083L297.194 123.43L296.959 116.439L286.794 111.606L282.445 116.182Z" fill="#9DC7D8"/>
    <path d="M324.258 106.009L323.821 105.039L324.258 106.009Z" fill="#A2C8DA"/>
    <path d="M131.512 73.164C131.512 76.2252 133.994 78.7065 137.055 78.7065C140.116 78.7065 142.597 76.2252 142.597 73.164C142.597 70.1027 140.116 67.6214 137.055 67.6214C133.994 67.6214 131.512 70.1027 131.512 73.164Z" fill="#142251"/>
    <path d="M134.256 69.2303C134.255 71.5658 139.803 71.6591 139.701 69.2303V63.4969H134.255L134.256 69.2303Z" fill="#AFB4C4"/>
    <path d="M134.616 77.8727C136.643 76.7118 133.965 71.8531 131.909 73.1501L113.153 83.8923L115.861 88.6149L134.616 77.8727Z" fill="#AFB4C4"/>
    <path d="M131.603 61.2653C132.155 64.2762 135.045 66.2688 138.055 65.7157C141.065 65.1637 143.059 62.275 142.506 59.2641C141.953 56.2544 139.064 54.2607 136.053 54.8138C133.043 55.3658 131.05 58.2544 131.603 61.2653Z" fill="#142251"/>
    <path d="M147.996 60.1076L147.551 62.1388L135.45 61.1516L126.647 58.0807L127.104 56.4569L147.996 60.1076Z" fill="#142251"/>
    <path d="M169.899 33.0967L182.579 37.7518L183.806 44.4456L180.066 51.4845L177.525 52.2026L175.696 52.0044L174.009 58.577L169.381 61.8119L131.145 58.7656L119.767 54.6893L117.218 49.3697L119.098 42.0221L117.453 41.4015L118.395 33.5126L124.21 29.5521L169.899 33.0967Z" fill="white"/>
    <path d="M169.381 61.8119L174.009 58.577L135.61 55.6808L131.145 58.7656L169.381 61.8119Z" fill="#142251"/>
    <path d="M135.61 55.6808L131.145 58.7656L119.767 54.6893L117.218 49.3697L119.098 42.0221L120.952 35.0979L125.224 31.9863L135.672 35.7935L137.988 41.2182L137.436 48.4897L135.61 55.6808Z" fill="#AFB4C4"/>
    <path d="M175.697 52.0044L174.01 58.577L135.61 55.6809L137.437 48.4898L139.076 49.1961L175.697 52.0044Z" fill="#142251"/>
    <path d="M183.806 44.4456L139.787 41.0767L139.076 49.1961L175.697 52.0044L177.525 52.2026L180.067 51.4845L183.806 44.4456Z" fill="#AFB4C4"/>
    <path d="M125.223 31.9863L124.282 31.6561L119.713 34.6959L119.097 42.0221L120.951 35.0979L125.223 31.9863Z" fill="#142251"/>
    <path d="M183.806 44.4456L182.578 37.7518L136.692 34.1589L139.787 41.0767L183.806 44.4456Z" fill="#AFB4C4"/>
    <path d="M116.974 81.2534V97.834L114.046 99.5662L105.673 94.9475V78.4076L108.849 76.5522L116.974 81.2534Z" fill="#06090A"/>
    <path d="M114.045 99.5662V82.9652L116.973 81.2534V97.834L114.045 99.5662Z" fill="#142251"/>
    <path d="M116.974 81.2533L114.046 82.9651L105.673 78.4075L108.849 76.5522L116.974 81.2533Z" fill="white"/>
    <path d="M114.756 0.499939V224L85.7332 224L85.7326 0.499939H114.756Z" fill="#AFB4C4"/>
    <path d="M116.909 118.183V134.767L108.754 139.51L105.478 137.804V121.288L113.907 116.409L116.909 118.183Z" fill="#AFB4C4"/>
    <path d="M116.908 118.183V134.767L108.754 139.51V122.733L116.908 118.183Z" fill="white"/>
    <path d="M135.353 138.624L113.976 126.407C112.178 125.462 109.676 130.24 111.416 131.252L133.527 144.219L135.353 138.624Z" fill="#AFB4C4"/>
    <path d="M131.297 143.088C131.297 146.17 133.796 148.667 136.876 148.667C139.958 148.667 142.455 146.17 142.455 143.088C142.455 140.006 139.958 137.509 136.876 137.509C133.796 137.509 131.297 140.006 131.297 143.088Z" fill="#142251"/>
    <path d="M139.805 139.067C139.805 139.067 139.203 140.637 136.877 140.465C134.551 140.295 134.218 139.115 134.18 138.204C134.142 137.292 134.415 128.421 134.415 128.421L139.805 139.067Z" fill="#486B7C"/>
    <path d="M116.637 115.82L159.527 160.834L161.679 161.861L172.292 155.823L173.248 154.556L186.487 147.054L187.371 146.092L137.913 94.2486L135.352 93.1896L123.767 99.9434L118.106 105.714L117.199 112.315L117.969 113.063L116.637 115.82Z" fill="white"/>
    <path d="M116.637 115.82L159.527 160.834L161.679 161.861L172.292 155.823L173.248 154.556L118.106 105.714L117.199 112.315L117.969 113.063L116.637 115.82Z" fill="#AFB4C4"/>
    <path d="M187.372 146.096L186.486 147.052L135.353 93.1886L137.912 94.2465L187.372 146.096Z" fill="#486B7C"/>
    <path d="M123.768 99.9455L118.104 105.712L167.411 157.63L174.804 153.676L123.768 99.9455Z" fill="#AFB4C4"/>
    <path d="M108.754 122.733V139.51L105.478 137.804V121.288L108.754 122.733Z" fill="#142251"/>
    <path d="M83.2047 96.3173V112.768L91.2947 117.473L94.5438 115.78V99.3968L86.1824 94.5563L83.2047 96.3173Z" fill="#AFB4C4"/>
    <path d="M83.2047 96.3173V112.768L91.2947 117.473V100.83L83.2047 96.3173Z" fill="white"/>
    <path d="M64.9098 116.593L86.1167 104.474C87.8995 103.538 90.3811 108.277 88.6553 109.281L66.7206 122.145L64.9098 116.593Z" fill="#AFB4C4"/>
    <path d="M91.2955 100.83V117.473L94.5446 115.78V99.3968L91.2955 100.83Z" fill="#142251"/>
    <path d="M80.0147 77.4161L80.2313 84.1463L68.1581 135.246H67.1085V137.531L62.6138 140.002L48.5213 138.396L44.0132 135.123L43.5191 130.924L42.9015 132.529H40.8646L40 130.554L52.8443 74.5135L58.2162 71.4254L74.2104 73.1554L80.0147 77.4161Z" fill="white"/>
    <path d="M80.0147 77.4161L66.985 133.455L60.7276 131.274L44.8368 129.586L40 130.554L40.8646 132.529H42.9015L43.5191 130.924L45.0628 130.41L60.5831 131.912L65.2147 133.621L66.0177 135.205L67.1085 135.246H68.1581L80.2313 84.1463L80.0147 77.4161Z" fill="#142251"/>
    <path d="M43.5218 130.927L44.0159 135.126L48.521 138.396L62.6156 140.002L67.1061 137.531V135.244L66.0196 135.204L65.2136 133.619L64.5612 133.377L62.5662 132.642L60.5849 131.91L48.6445 130.754L45.5671 130.458L45.0626 130.408L43.5218 130.927Z" fill="#AFB4C4"/>
    <path d="M45.5676 130.458C46.2836 134.527 51.4964 137.223 56.6141 137.615C61.1494 137.963 63.9601 135.866 64.5617 133.377L62.5667 132.642L60.5855 131.91L48.645 130.754L45.5676 130.458Z" fill="#142251"/>
    <path d="M48.645 130.754C49.3066 133.277 52.6164 135.204 56.3022 135.204C59.0978 135.204 61.7368 134.568 62.5667 132.642L60.5854 131.909L48.645 130.754Z" fill="#142251"/>
    <path d="M74.2099 73.1555L60.727 131.274L66.9844 133.455L80.0142 77.4161L74.2099 73.1555Z" fill="#AFB4C4"/>
    <path d="M58.2162 71.4254L44.8368 129.586L40 130.554L52.8443 74.5135L58.2162 71.4254Z" fill="#AFB4C4"/>
    <path d="M237.885 184.383L231.39 195.187C231.39 195.187 230.166 197.891 229.915 202.003C229.663 206.113 226.894 216.432 231.929 218.699C236.962 220.964 244.514 221.131 245.605 214.504C246.695 207.876 244.681 203.923 244.933 202.248C245.185 200.576 245.931 195.206 244.43 191.096C242.928 186.984 237.885 184.383 237.885 184.383Z" fill="#142251"/>
    <path d="M322.793 206.421L323.001 217.784L323.501 224L340.499 224C340.499 224 337.56 220.74 334.204 211.456C330.848 202.17 322.793 206.421 322.793 206.421Z" fill="#142251"/>
    <path d="M332.016 218.95C324.981 221.125 323.29 218.789 321.115 214.923C318.939 211.057 305.167 174.987 303.153 171.805C301.959 169.911 298.683 163.267 295.099 156.138C292.655 151.278 290.064 146.219 287.891 142.271C283.689 134.633 279.204 134.016 277.459 134.122C276.976 134.136 276.708 134.216 276.708 134.216C271.069 139.238 265.07 167.938 259.028 175.161C252.987 182.37 247.121 194.115 247.121 194.115C247.121 194.115 245.429 198.479 237.885 199.324C230.34 200.156 231.011 191.767 231.011 191.767C230.663 178.516 245.778 162.905 245.778 162.905C246.101 134.043 257.015 108.456 257.015 108.456C257.015 108.456 285.434 108.281 297.153 111.932C299.474 112.658 301.14 113.53 301.811 114.578C305.838 120.953 318.229 162.596 318.766 163.924C323.358 175.362 324.807 180.356 326.149 183.377C326.605 184.396 327.962 187.685 329.545 191.592C332.727 199.351 336.794 209.392 336.794 209.392C336.794 209.392 339.077 216.776 332.016 218.95Z" fill="#AFB4C4"/>
    <path d="M225.914 88.6235L219.11 95.6109C219.11 95.6109 214.337 101.769 213.05 102.831C211.764 103.893 208.296 111.11 208.296 111.11L206.225 117.542C205.5 119.303 207.289 119.527 208.239 118.213L208.743 117.263C209.496 117.535 210.03 117.107 210.417 116.198L213.497 109.991L211.708 115.584C211.261 117.263 213.666 117.597 214.464 115.449C214.464 115.449 215.287 110.942 216.686 109.6C218.084 108.257 222.482 106.296 223.548 100.175C223.622 99.7548 227.202 89.6857 227.202 89.6857L225.914 88.6235Z" fill="#DADCE4"/>
    <path d="M249.739 74.4792C249.591 75.2842 249.416 76.0495 249.188 76.7612C248.785 78.0507 247.967 79.5009 246.865 81.0433C241.12 89.1927 227.763 99.743 227.266 100.133C221.883 102.267 218.755 94.8843 218.755 94.8843C220.327 90.8562 236.77 66.4789 236.77 66.4789V59.3103C236.77 48.463 245.939 48.6785 245.939 48.6785L249.188 53.162C249.188 53.162 251.322 66.0351 249.739 74.4792Z" fill="#AFB4C4"/>
    <path d="M300.126 113.15C300.126 113.15 293.38 117.826 277.432 121.854C267.378 124.368 259.493 121.533 254.316 115.658C254.316 115.658 252.986 96.2797 252.315 92.7629C252.047 91.3534 250.57 88.4272 248.812 84.9233C248.181 83.6885 247.524 82.3862 246.864 81.0432C244.716 76.6807 242.61 71.9956 241.911 68.4649C241.536 66.5452 241.576 64.4111 241.871 62.277C242.703 55.8598 245.684 49.4029 245.938 48.6783C245.938 48.6783 249.308 46.7983 266.894 49.5637C285.259 52.4502 296.118 58.8396 296.118 58.8396L298.508 79.459L300.126 113.15Z" fill="white"/>
    <path d="M259.648 133.099C253.28 133.957 247.808 128.543 247.808 128.543C247.808 128.543 250.992 96.7804 250.325 93.2539C250.058 91.8423 249.563 88.6578 247.808 85.1507C247.179 83.9116 246.55 81.7379 245.901 80.3841C243.747 76.0184 242.603 71.9946 241.917 68.4682C241.535 66.5431 241.11 64.4166 241.237 62.2632C241.676 54.9456 245.692 49.403 245.94 48.6784C245.94 48.6784 248.456 47.3054 260.277 48.6602C259.096 50.6239 257.664 52.3774 256.979 54.0742C256.712 54.7227 256.54 55.3701 256.54 56.0003C258.446 69.3643 260.735 84.7123 261.535 99.5629C261.553 99.7162 261.553 99.8684 261.573 100.001V100.135C262.183 111.86 261.84 123.262 259.648 133.099Z" fill="#AFB4C4"/>
    <path d="M281.802 133.195C281.992 128.219 281.421 123.033 280.41 117.714C276.101 95.045 263.632 70.0888 266.359 48.6784C280.963 51.8243 296.119 58.8407 296.119 58.8407L298.503 79.4505L310.151 124.748C310.151 124.748 296.577 129.096 281.802 133.195Z" fill="#AFB4C4"/>
    <path d="M250.561 50.8296L252.962 66.8476L254.974 64.0575L260.692 71.2615L261.307 62.2632L269.587 69.2603C269.587 69.2603 268.677 65.4113 268.845 61.887C269.012 58.3638 269.128 49.3194 263.785 46.2056C260.372 44.2184 253.623 43.8422 250.855 45.8637C251.046 48.1822 250.561 50.8296 250.561 50.8296Z" fill="white"/>
    <path d="M251.528 55.4611L257.476 66.438L259.888 68.8497L260.29 65.6341C260.29 65.6341 259.774 65.4144 260.29 63.6244C260.804 61.8344 264.623 52.7439 263.151 47.7791C261.841 43.3609 248.156 39.3392 248.156 39.3392L251.141 47.8562L251.528 55.4611Z" fill="#DADCE4"/>
    <path d="M287.219 75.983L298.294 94.3419C298.294 94.3419 290.239 119.934 289.568 125.729C289.568 125.729 292.757 131.32 298.294 130.668C298.294 130.668 316.584 101.992 314.235 90.7501C311.885 79.5063 301.65 64.5184 296.113 58.8408L287.219 75.983Z" fill="#AFB4C4"/>
    <path d="M290.127 126.072C290.127 126.072 295.357 126.072 296.699 129.679C296.699 129.679 294.35 134.797 294.35 136.643C294.35 138.49 293.162 144.945 291.917 146.208C290.672 147.471 288.647 153.138 288.589 153.265C287.945 154.682 287.058 154.454 286.7 153.862L285.876 155.353C285.254 156.668 283.583 156.188 284.065 154.934L286.716 147.327L283.247 154.654C282.437 156.556 280.73 155.903 281.261 154.039L284.534 144.922L284.065 144.614L280.674 152.752C280.059 154.375 278.382 153.647 278.968 151.773C278.968 151.773 282.52 141.482 282.576 140.363C282.632 139.244 282.884 136.726 280.758 137.595C280.758 137.595 277.346 141.258 275.64 141.201C273.934 141.146 273.487 140.698 274.017 140.027C274.549 139.356 277.415 137.541 278.577 135.972C279.738 134.403 282.046 132.197 284.757 130.994C287.47 129.79 290.127 126.072 290.127 126.072Z" fill="#DADCE4"/>
    <path d="M257.834 66.8872L260.235 71.0139C260.235 71.0139 265.764 77.1346 266.857 85.7316C267.848 93.5257 264.46 103.713 263.609 106.563L267.74 113.195L271.951 105.798C271.951 105.798 274.466 93.7713 271.951 83.7219C270.47 77.8028 264.561 73.8822 262.578 69.9806C262.418 69.345 261.306 62.2632 261.306 62.2632L259.306 67.4563L257.834 66.8872Z" fill="#142251"/>
    <path d="M266.993 47.7963L266.451 47.5465C266.465 47.5465 266.479 47.5465 266.491 47.5465C266.683 47.5465 266.872 47.5476 267.058 47.5497C267.037 47.6323 267.016 47.7148 266.993 47.7963Z" fill="#D9CEC9"/>
    <path d="M265.286 52.8179C265.021 50.1843 264.754 48.5229 264.573 47.5829C265.217 47.5604 265.845 47.5465 266.452 47.5465L266.994 47.7962C266.5 49.6355 265.921 51.3226 265.286 52.8179Z" fill="#142251"/>
    <path d="M265.164 45.7136C265.164 45.7136 264.053 50.105 262.073 51.9861C260.092 53.8662 254.316 56.2768 254.316 56.2768C251.895 57.7335 247.877 55.7816 247.471 53.5007L245.037 41.4122L244.805 38.6104C244.805 38.6104 245.111 30.7108 247.832 27.7631C250.554 24.8155 255.219 22.2988 260.331 23.241C265.443 24.1831 269.717 26.8606 270.364 32.281C271.949 45.5582 265.164 45.7136 265.164 45.7136Z" fill="#DADCE4"/>
    <path d="M265.803 48.5508C264.884 48.2646 264.274 47.4703 265.163 45.7135L266.017 38.8226C265.023 38.4421 261.905 37.7207 260.283 30.6153C253.737 32.7987 246.963 29.7396 245.157 35.1536C242.926 34.2778 244.627 28.0664 246.188 26.0556C247.902 23.8497 251.913 21.5238 258.447 21.9493C265.172 22.3866 268.516 24.8734 270.898 30.6164C273.282 36.3594 268.922 47.2013 265.803 48.5508Z" fill="#142251"/>
    <path d="M268.5 36.6156C269.079 37.114 269.109 37.9865 269.073 38.7497C269.032 39.5996 268.961 40.455 268.71 41.2685C268.459 42.0799 268.014 42.8538 267.338 43.3705C266.693 43.8614 265.713 44.0629 265.098 43.5355C264.632 43.1347 264.527 42.4594 264.514 41.8441C264.49 40.6233 264.624 39.0466 265.257 37.964C265.843 36.9618 267.311 35.593 268.5 36.6156Z" fill="#DADCE4"/>
    <path d="M271.464 17L282.54 19.7931L287 20.9176L286.536 25.2473L285.387 36L280.928 34.8743L282.077 24.1228L271 21.3297L271.464 17Z" fill="#142251"/>
    <path d="M231 22.8192L232.14 11.5403L232.599 7L237.02 8.17949L248 11.1106L247.542 15.6509L236.561 12.7211L235.421 24L231 22.8192Z" fill="#142251"/>
    <path d="M242.536 61L231.461 58.2069L227 57.0812L227.465 52.7527L228.613 42L233.074 43.1257L231.925 53.8772L243 56.6715L242.536 61Z" fill="#142251"/>
    <path d="M283 56.1102L281.86 66.7252L281.401 71L276.98 69.8886L266 67.1309L266.458 62.8561L277.439 65.615L278.579 55L283 56.1102Z" fill="#142251"/>
</svg>
